<svg width="47" height="47" viewBox="0 0 47 47" fill="none" xmlns="http://www.w3.org/2000/svg">
<path fill-rule="evenodd" clip-rule="evenodd" d="M23.5 47C36.4787 47 47 36.4787 47 23.5C47 10.5213 36.4787 0 23.5 0C10.5213 0 0 10.5213 0 23.5C0 36.4787 10.5213 47 23.5 47Z" fill="#FF6660"/>
<path fill-rule="evenodd" clip-rule="evenodd" d="M17.1963 31.7358C16.6227 32.3094 15.6927 32.3094 15.1192 31.7358C14.5456 31.1622 14.5456 30.2323 15.1192 29.6587L21.3505 23.4273L15.1192 17.1959C14.5456 16.6223 14.5456 15.6924 15.1192 15.1188C15.6927 14.5452 16.6227 14.5452 17.1963 15.1188L23.4277 21.3502L29.659 15.1188C30.2326 14.5452 31.1626 14.5452 31.7362 15.1188C32.3097 15.6924 32.3097 16.6223 31.7362 17.1959L25.5048 23.4273L31.7362 29.6587C32.3097 30.2323 32.3097 31.1622 31.7362 31.7358C31.1626 32.3094 30.2326 32.3094 29.659 31.7358L23.4277 25.5044L17.1963 31.7358Z" fill="white"/>
</svg>
