<svg width="10" height="9" viewBox="0 0 10 9" fill="none" xmlns="http://www.w3.org/2000/svg">
<path d="M4.71468 0.878115C4.80449 0.601722 5.19551 0.601722 5.28532 0.878115L6.05522 3.24762C6.09538 3.37123 6.21057 3.45492 6.34053 3.45492H8.83198C9.12259 3.45492 9.24343 3.8268 9.00831 3.99762L6.99269 5.46205C6.88755 5.53845 6.84355 5.67386 6.88371 5.79746L7.65361 8.16697C7.74341 8.44336 7.42707 8.6732 7.19196 8.50238L5.17634 7.03795C5.07119 6.96155 4.92881 6.96155 4.82366 7.03795L2.80804 8.50238C2.57293 8.6732 2.25659 8.44336 2.34639 8.16697L3.11629 5.79746C3.15645 5.67386 3.11245 5.53845 3.00731 5.46205L0.991687 3.99762C0.756573 3.8268 0.877406 3.45492 1.16802 3.45492H3.65947C3.78944 3.45492 3.90462 3.37123 3.94478 3.24762L4.71468 0.878115Z" fill="#343C58"/>
</svg>
